<mxfile host="app.diagrams.net" modified="2023-10-26T01:12:00.913Z" agent="Mozilla/5.0 (X11; Linux x86_64) AppleWebKit/537.36 (KHTML, like Gecko) Chrome/116.0.0.0 Whale/3.22.205.26 Safari/537.36" etag="RsRPr8UeLWc5qw3sW0X6" version="22.0.8" type="google">
  <diagram name="Page-1" id="FpNPD8NhyTX6_xSF86l-">
    <mxGraphModel grid="1" page="1" gridSize="10" guides="1" tooltips="1" connect="1" arrows="1" fold="1" pageScale="1" pageWidth="850" pageHeight="1100" math="0" shadow="0">
      <root>
        <mxCell id="0" />
        <mxCell id="1" parent="0" />
        <mxCell id="_QkVNJ4z1gdAD7XROB06-14" value="" style="rounded=0;whiteSpace=wrap;html=1;" vertex="1" parent="1">
          <mxGeometry x="420" y="1045" width="450" height="240" as="geometry" />
        </mxCell>
        <mxCell id="VrPMQsgIApEenE23pgoX-6" style="edgeStyle=orthogonalEdgeStyle;rounded=0;orthogonalLoop=1;jettySize=auto;html=1;exitX=1;exitY=0.5;exitDx=0;exitDy=0;entryX=0;entryY=0.5;entryDx=0;entryDy=0;" edge="1" parent="1" source="VrPMQsgIApEenE23pgoX-1" target="VrPMQsgIApEenE23pgoX-2">
          <mxGeometry relative="1" as="geometry">
            <Array as="points">
              <mxPoint x="-238.5" y="354" />
              <mxPoint x="-238.5" y="354" />
            </Array>
          </mxGeometry>
        </mxCell>
        <mxCell id="VrPMQsgIApEenE23pgoX-7" style="edgeStyle=orthogonalEdgeStyle;rounded=0;orthogonalLoop=1;jettySize=auto;html=1;entryX=0;entryY=0.5;entryDx=0;entryDy=0;exitX=1;exitY=0.5;exitDx=0;exitDy=0;" edge="1" parent="1" source="VrPMQsgIApEenE23pgoX-1" target="VrPMQsgIApEenE23pgoX-3">
          <mxGeometry relative="1" as="geometry">
            <mxPoint x="-148.5" y="229" as="sourcePoint" />
            <Array as="points">
              <mxPoint x="-78.5" y="354" />
              <mxPoint x="-78.5" y="474" />
            </Array>
          </mxGeometry>
        </mxCell>
        <mxCell id="VrPMQsgIApEenE23pgoX-8" style="edgeStyle=orthogonalEdgeStyle;rounded=0;orthogonalLoop=1;jettySize=auto;html=1;exitX=1;exitY=0.5;exitDx=0;exitDy=0;entryX=0;entryY=0.5;entryDx=0;entryDy=0;" edge="1" parent="1" source="VrPMQsgIApEenE23pgoX-1" target="VrPMQsgIApEenE23pgoX-4">
          <mxGeometry relative="1" as="geometry">
            <Array as="points">
              <mxPoint x="-78.5" y="354" />
              <mxPoint x="-78.5" y="594" />
            </Array>
          </mxGeometry>
        </mxCell>
        <mxCell id="VrPMQsgIApEenE23pgoX-9" style="edgeStyle=orthogonalEdgeStyle;rounded=0;orthogonalLoop=1;jettySize=auto;html=1;exitX=0.5;exitY=1;exitDx=0;exitDy=0;entryX=0;entryY=0.5;entryDx=0;entryDy=0;" edge="1" parent="1" source="0piN9PvZCirRsEY30RKc-11" target="VrPMQsgIApEenE23pgoX-5">
          <mxGeometry relative="1" as="geometry">
            <Array as="points">
              <mxPoint x="-208.5" y="896" />
            </Array>
            <mxPoint x="-288.5" y="354" as="sourcePoint" />
            <mxPoint x="-188.5" y="850" as="targetPoint" />
          </mxGeometry>
        </mxCell>
        <mxCell id="0piN9PvZCirRsEY30RKc-12" style="edgeStyle=orthogonalEdgeStyle;rounded=0;orthogonalLoop=1;jettySize=auto;html=1;exitX=1;exitY=0.5;exitDx=0;exitDy=0;entryX=1;entryY=0.5;entryDx=0;entryDy=0;" edge="1" parent="1" source="VrPMQsgIApEenE23pgoX-1" target="0piN9PvZCirRsEY30RKc-11">
          <mxGeometry relative="1" as="geometry">
            <Array as="points">
              <mxPoint x="-78.5" y="354" />
              <mxPoint x="-78.5" y="595" />
            </Array>
          </mxGeometry>
        </mxCell>
        <mxCell id="VrPMQsgIApEenE23pgoX-1" value="MainWindow" style="swimlane;" vertex="1" parent="1">
          <mxGeometry x="-478.5" y="309" width="200" height="90" as="geometry" />
        </mxCell>
        <mxCell id="VrPMQsgIApEenE23pgoX-22" style="edgeStyle=orthogonalEdgeStyle;rounded=0;orthogonalLoop=1;jettySize=auto;html=1;exitX=1;exitY=0.5;exitDx=0;exitDy=0;entryX=0;entryY=0.5;entryDx=0;entryDy=0;" edge="1" parent="1" source="VrPMQsgIApEenE23pgoX-2" target="VrPMQsgIApEenE23pgoX-11">
          <mxGeometry relative="1" as="geometry" />
        </mxCell>
        <mxCell id="Lp6IFcDQnF-obYxSoJii-4" style="edgeStyle=orthogonalEdgeStyle;rounded=0;orthogonalLoop=1;jettySize=auto;html=1;exitX=1;exitY=0.75;exitDx=0;exitDy=0;entryX=0;entryY=0.5;entryDx=0;entryDy=0;" edge="1" parent="1">
          <mxGeometry relative="1" as="geometry">
            <Array as="points">
              <mxPoint x="242" y="377" />
              <mxPoint x="242" y="425" />
            </Array>
            <mxPoint x="153.5" y="376.5" as="sourcePoint" />
            <mxPoint x="1203.0000000000005" y="425" as="targetPoint" />
          </mxGeometry>
        </mxCell>
        <mxCell id="0piN9PvZCirRsEY30RKc-6" style="edgeStyle=orthogonalEdgeStyle;rounded=0;orthogonalLoop=1;jettySize=auto;html=1;exitX=0.5;exitY=0;exitDx=0;exitDy=0;entryX=0.5;entryY=1;entryDx=0;entryDy=0;" edge="1" parent="1" source="VrPMQsgIApEenE23pgoX-2" target="0piN9PvZCirRsEY30RKc-5">
          <mxGeometry relative="1" as="geometry" />
        </mxCell>
        <mxCell id="0piN9PvZCirRsEY30RKc-24" style="edgeStyle=orthogonalEdgeStyle;rounded=0;orthogonalLoop=1;jettySize=auto;html=1;exitX=0.5;exitY=1;exitDx=0;exitDy=0;entryX=0;entryY=0.5;entryDx=0;entryDy=0;" edge="1" parent="1" source="VrPMQsgIApEenE23pgoX-2" target="Lp6IFcDQnF-obYxSoJii-19">
          <mxGeometry relative="1" as="geometry">
            <Array as="points">
              <mxPoint x="51.5" y="420" />
              <mxPoint x="-378.5" y="420" />
              <mxPoint x="-378.5" y="1271" />
            </Array>
          </mxGeometry>
        </mxCell>
        <mxCell id="0piN9PvZCirRsEY30RKc-47" style="edgeStyle=orthogonalEdgeStyle;rounded=0;orthogonalLoop=1;jettySize=auto;html=1;exitX=0.5;exitY=1;exitDx=0;exitDy=0;entryX=0;entryY=0.5;entryDx=0;entryDy=0;" edge="1" parent="1" source="VrPMQsgIApEenE23pgoX-2" target="0piN9PvZCirRsEY30RKc-46">
          <mxGeometry relative="1" as="geometry">
            <Array as="points">
              <mxPoint x="52" y="420" />
              <mxPoint x="-380" y="420" />
              <mxPoint x="-380" y="1395" />
            </Array>
          </mxGeometry>
        </mxCell>
        <mxCell id="VrPMQsgIApEenE23pgoX-2" value="MenubarView" style="swimlane;" vertex="1" parent="1">
          <mxGeometry x="-48.5" y="309" width="200" height="90" as="geometry" />
        </mxCell>
        <mxCell id="VrPMQsgIApEenE23pgoX-23" style="edgeStyle=orthogonalEdgeStyle;rounded=0;orthogonalLoop=1;jettySize=auto;html=1;exitX=1;exitY=0.5;exitDx=0;exitDy=0;entryX=0;entryY=0.5;entryDx=0;entryDy=0;" edge="1" parent="1" source="VrPMQsgIApEenE23pgoX-3" target="VrPMQsgIApEenE23pgoX-11">
          <mxGeometry relative="1" as="geometry">
            <Array as="points">
              <mxPoint x="221.5" y="474" />
              <mxPoint x="221.5" y="354" />
            </Array>
          </mxGeometry>
        </mxCell>
        <mxCell id="Lp6IFcDQnF-obYxSoJii-5" style="edgeStyle=orthogonalEdgeStyle;rounded=0;orthogonalLoop=1;jettySize=auto;html=1;exitX=1;exitY=0.75;exitDx=0;exitDy=0;entryX=0;entryY=0.5;entryDx=0;entryDy=0;" edge="1" parent="1" source="VrPMQsgIApEenE23pgoX-3" target="VrPMQsgIApEenE23pgoX-12">
          <mxGeometry relative="1" as="geometry">
            <mxPoint x="700" y="890" as="targetPoint" />
            <Array as="points">
              <mxPoint x="240" y="496" />
              <mxPoint x="240" y="425" />
            </Array>
          </mxGeometry>
        </mxCell>
        <mxCell id="0piN9PvZCirRsEY30RKc-10" style="edgeStyle=orthogonalEdgeStyle;rounded=0;orthogonalLoop=1;jettySize=auto;html=1;exitX=0.5;exitY=1;exitDx=0;exitDy=0;entryX=0;entryY=0.5;entryDx=0;entryDy=0;" edge="1" parent="1" source="VrPMQsgIApEenE23pgoX-3" target="0piN9PvZCirRsEY30RKc-8">
          <mxGeometry relative="1" as="geometry" />
        </mxCell>
        <mxCell id="VrPMQsgIApEenE23pgoX-3" value="ViewDisplayView" style="swimlane;" vertex="1" parent="1">
          <mxGeometry x="-48.5" y="429" width="200" height="90" as="geometry" />
        </mxCell>
        <mxCell id="VrPMQsgIApEenE23pgoX-24" style="edgeStyle=orthogonalEdgeStyle;rounded=0;orthogonalLoop=1;jettySize=auto;html=1;exitX=1;exitY=0.5;exitDx=0;exitDy=0;entryX=0;entryY=0.5;entryDx=0;entryDy=0;" edge="1" parent="1" source="VrPMQsgIApEenE23pgoX-4" target="VrPMQsgIApEenE23pgoX-11">
          <mxGeometry relative="1" as="geometry">
            <mxPoint x="301.5" y="559" as="targetPoint" />
            <Array as="points">
              <mxPoint x="221.5" y="594" />
              <mxPoint x="221.5" y="354" />
            </Array>
          </mxGeometry>
        </mxCell>
        <mxCell id="Lp6IFcDQnF-obYxSoJii-6" style="edgeStyle=orthogonalEdgeStyle;rounded=0;orthogonalLoop=1;jettySize=auto;html=1;exitX=1;exitY=0.75;exitDx=0;exitDy=0;entryX=0;entryY=0.5;entryDx=0;entryDy=0;" edge="1" parent="1" source="VrPMQsgIApEenE23pgoX-4" target="VrPMQsgIApEenE23pgoX-12">
          <mxGeometry relative="1" as="geometry">
            <Array as="points">
              <mxPoint x="240" y="616" />
              <mxPoint x="240" y="425" />
            </Array>
          </mxGeometry>
        </mxCell>
        <mxCell id="VrPMQsgIApEenE23pgoX-4" value="ViewSelectView" style="swimlane;" vertex="1" parent="1">
          <mxGeometry x="-48.5" y="549" width="200" height="90" as="geometry" />
        </mxCell>
        <mxCell id="VrPMQsgIApEenE23pgoX-25" style="edgeStyle=orthogonalEdgeStyle;rounded=0;orthogonalLoop=1;jettySize=auto;html=1;exitX=1;exitY=0.5;exitDx=0;exitDy=0;entryX=0;entryY=0.5;entryDx=0;entryDy=0;" edge="1" parent="1" source="VrPMQsgIApEenE23pgoX-5" target="VrPMQsgIApEenE23pgoX-11">
          <mxGeometry relative="1" as="geometry">
            <mxPoint x="321.5" y="569" as="targetPoint" />
            <Array as="points">
              <mxPoint x="221.5" y="896" />
              <mxPoint x="221.5" y="354" />
            </Array>
          </mxGeometry>
        </mxCell>
        <mxCell id="0piN9PvZCirRsEY30RKc-41" style="edgeStyle=orthogonalEdgeStyle;rounded=0;orthogonalLoop=1;jettySize=auto;html=1;exitX=0.5;exitY=1;exitDx=0;exitDy=0;entryX=0;entryY=0.5;entryDx=0;entryDy=0;" edge="1" parent="1" source="VrPMQsgIApEenE23pgoX-5" target="0piN9PvZCirRsEY30RKc-40">
          <mxGeometry relative="1" as="geometry" />
        </mxCell>
        <mxCell id="0piN9PvZCirRsEY30RKc-44" style="edgeStyle=orthogonalEdgeStyle;rounded=0;orthogonalLoop=1;jettySize=auto;html=1;entryX=0;entryY=0.5;entryDx=0;entryDy=0;exitX=0.5;exitY=0;exitDx=0;exitDy=0;" edge="1" parent="1" source="VrPMQsgIApEenE23pgoX-5" target="0piN9PvZCirRsEY30RKc-43">
          <mxGeometry relative="1" as="geometry">
            <mxPoint x="271.5" y="950" as="sourcePoint" />
            <Array as="points">
              <mxPoint x="51.5" y="830" />
              <mxPoint x="298.5" y="830" />
            </Array>
          </mxGeometry>
        </mxCell>
        <mxCell id="_QkVNJ4z1gdAD7XROB06-26" style="edgeStyle=orthogonalEdgeStyle;rounded=0;orthogonalLoop=1;jettySize=auto;html=1;exitX=1;exitY=0.75;exitDx=0;exitDy=0;entryX=-0.032;entryY=-0.069;entryDx=0;entryDy=0;entryPerimeter=0;" edge="1" parent="1">
          <mxGeometry relative="1" as="geometry">
            <mxPoint x="144.5" y="918.5" as="sourcePoint" />
            <mxPoint x="1186.6000000000004" y="426.1709999999998" as="targetPoint" />
            <Array as="points">
              <mxPoint x="243" y="918" />
              <mxPoint x="243" y="426" />
            </Array>
          </mxGeometry>
        </mxCell>
        <mxCell id="VrPMQsgIApEenE23pgoX-5" value="CameraParameterControlView" style="swimlane;" vertex="1" parent="1">
          <mxGeometry x="-48.5" y="851" width="200" height="90" as="geometry" />
        </mxCell>
        <mxCell id="VrPMQsgIApEenE23pgoX-10" value="EventManager" style="swimlane;" vertex="1" parent="1">
          <mxGeometry x="298.5" y="163" width="200" height="90" as="geometry" />
        </mxCell>
        <mxCell id="VrPMQsgIApEenE23pgoX-18" style="edgeStyle=orthogonalEdgeStyle;rounded=0;orthogonalLoop=1;jettySize=auto;html=1;exitX=0.5;exitY=0;exitDx=0;exitDy=0;entryX=0.5;entryY=1;entryDx=0;entryDy=0;" edge="1" parent="1" source="VrPMQsgIApEenE23pgoX-11" target="VrPMQsgIApEenE23pgoX-10">
          <mxGeometry relative="1" as="geometry" />
        </mxCell>
        <mxCell id="VrPMQsgIApEenE23pgoX-26" style="edgeStyle=orthogonalEdgeStyle;rounded=0;orthogonalLoop=1;jettySize=auto;html=1;exitX=0;exitY=0.75;exitDx=0;exitDy=0;entryX=0;entryY=0.5;entryDx=0;entryDy=0;" edge="1" parent="1" source="VrPMQsgIApEenE23pgoX-11" target="VrPMQsgIApEenE23pgoX-12">
          <mxGeometry relative="1" as="geometry">
            <Array as="points">
              <mxPoint x="240" y="377" />
              <mxPoint x="240" y="425" />
            </Array>
          </mxGeometry>
        </mxCell>
        <mxCell id="VrPMQsgIApEenE23pgoX-11" value="MainWindowViewModelManager" style="swimlane;" vertex="1" parent="1">
          <mxGeometry x="298.5" y="309" width="200" height="90" as="geometry" />
        </mxCell>
        <mxCell id="VrPMQsgIApEenE23pgoX-19" value="1" style="text;html=1;strokeColor=none;fillColor=none;align=center;verticalAlign=middle;whiteSpace=wrap;rounded=0;" vertex="1" parent="VrPMQsgIApEenE23pgoX-11">
          <mxGeometry x="75" y="-30" width="30" height="30" as="geometry" />
        </mxCell>
        <mxCell id="VrPMQsgIApEenE23pgoX-15" style="edgeStyle=orthogonalEdgeStyle;rounded=0;orthogonalLoop=1;jettySize=auto;html=1;exitX=0.5;exitY=1;exitDx=0;exitDy=0;entryX=0.5;entryY=0;entryDx=0;entryDy=0;" edge="1" parent="1" source="VrPMQsgIApEenE23pgoX-12" target="VrPMQsgIApEenE23pgoX-13">
          <mxGeometry relative="1" as="geometry" />
        </mxCell>
        <mxCell id="VrPMQsgIApEenE23pgoX-12" value="SingleViewDataManager" style="swimlane;" vertex="1" parent="1">
          <mxGeometry x="1201" y="380" width="200" height="90" as="geometry" />
        </mxCell>
        <mxCell id="Mt5SznRJf0V5U8LM7rI8-5" value="&lt;div&gt;ViewEnum _currentSelectedView&amp;nbsp;&lt;/div&gt;" style="text;strokeColor=none;fillColor=none;align=left;verticalAlign=top;spacingLeft=4;spacingRight=4;overflow=hidden;rotatable=0;points=[[0,0.5],[1,0.5]];portConstraint=eastwest;whiteSpace=wrap;html=1;" vertex="1" parent="VrPMQsgIApEenE23pgoX-12">
          <mxGeometry y="23" width="200" height="26" as="geometry" />
        </mxCell>
        <mxCell id="Mt5SznRJf0V5U8LM7rI8-7" value="&lt;div&gt;&lt;font style=&quot;font-size: 9px;&quot;&gt;Dictionary&amp;lt;ViewEnum,ViewDataCollection&amp;gt; _viewDataCollectionDictionary&lt;/font&gt;&lt;br&gt;&lt;/div&gt;" style="text;strokeColor=none;fillColor=none;align=left;verticalAlign=top;spacingLeft=4;spacingRight=4;overflow=hidden;rotatable=0;points=[[0,0.5],[1,0.5]];portConstraint=eastwest;whiteSpace=wrap;html=1;" vertex="1" parent="VrPMQsgIApEenE23pgoX-12">
          <mxGeometry x="-1" y="49" width="200" height="41" as="geometry" />
        </mxCell>
        <mxCell id="Lp6IFcDQnF-obYxSoJii-9" style="edgeStyle=orthogonalEdgeStyle;rounded=0;orthogonalLoop=1;jettySize=auto;html=1;exitX=0.5;exitY=1;exitDx=0;exitDy=0;entryX=0.5;entryY=0;entryDx=0;entryDy=0;" edge="1" parent="1" source="VrPMQsgIApEenE23pgoX-13" target="Lp6IFcDQnF-obYxSoJii-8">
          <mxGeometry relative="1" as="geometry" />
        </mxCell>
        <mxCell id="VrPMQsgIApEenE23pgoX-13" value="ViewDataCollection" style="swimlane;" vertex="1" parent="1">
          <mxGeometry x="1200" y="639" width="201" height="90" as="geometry" />
        </mxCell>
        <mxCell id="Mt5SznRJf0V5U8LM7rI8-8" value="&lt;div&gt;int CurrentViewDataIndex&lt;/div&gt;" style="text;strokeColor=none;fillColor=none;align=left;verticalAlign=top;spacingLeft=4;spacingRight=4;overflow=hidden;rotatable=0;points=[[0,0.5],[1,0.5]];portConstraint=eastwest;whiteSpace=wrap;html=1;" vertex="1" parent="VrPMQsgIApEenE23pgoX-13">
          <mxGeometry x="1" y="24" width="200" height="26" as="geometry" />
        </mxCell>
        <mxCell id="VrPMQsgIApEenE23pgoX-16" value="1" style="text;html=1;strokeColor=none;fillColor=none;align=center;verticalAlign=middle;whiteSpace=wrap;rounded=0;" vertex="1" parent="1">
          <mxGeometry x="1267" y="470" width="30" height="30" as="geometry" />
        </mxCell>
        <mxCell id="VrPMQsgIApEenE23pgoX-17" value="n" style="text;html=1;strokeColor=none;fillColor=none;align=center;verticalAlign=middle;whiteSpace=wrap;rounded=0;" vertex="1" parent="1">
          <mxGeometry x="1267" y="606" width="30" height="30" as="geometry" />
        </mxCell>
        <mxCell id="VrPMQsgIApEenE23pgoX-21" value="1" style="text;html=1;strokeColor=none;fillColor=none;align=center;verticalAlign=middle;whiteSpace=wrap;rounded=0;" vertex="1" parent="1">
          <mxGeometry x="373.5" y="255" width="30" height="30" as="geometry" />
        </mxCell>
        <mxCell id="Lp6IFcDQnF-obYxSoJii-40" style="edgeStyle=orthogonalEdgeStyle;rounded=0;orthogonalLoop=1;jettySize=auto;html=1;exitX=1;exitY=0.5;exitDx=0;exitDy=0;entryX=0;entryY=0.5;entryDx=0;entryDy=0;" edge="1" parent="1" source="Lp6IFcDQnF-obYxSoJii-1" target="Lp6IFcDQnF-obYxSoJii-39">
          <mxGeometry relative="1" as="geometry" />
        </mxCell>
        <mxCell id="Lp6IFcDQnF-obYxSoJii-1" value="OriginalCameraDataManager" style="swimlane;" vertex="1" parent="1">
          <mxGeometry x="984" y="1240" width="200" height="90" as="geometry" />
        </mxCell>
        <mxCell id="Lp6IFcDQnF-obYxSoJii-11" style="edgeStyle=orthogonalEdgeStyle;rounded=0;orthogonalLoop=1;jettySize=auto;html=1;exitX=1;exitY=0.5;exitDx=0;exitDy=0;entryX=0;entryY=0.5;entryDx=0;entryDy=0;" edge="1" parent="1" source="Lp6IFcDQnF-obYxSoJii-8" target="Lp6IFcDQnF-obYxSoJii-10">
          <mxGeometry relative="1" as="geometry" />
        </mxCell>
        <mxCell id="Lp6IFcDQnF-obYxSoJii-43" style="edgeStyle=orthogonalEdgeStyle;rounded=0;orthogonalLoop=1;jettySize=auto;html=1;exitX=0.5;exitY=1;exitDx=0;exitDy=0;entryX=0.5;entryY=0;entryDx=0;entryDy=0;" edge="1" parent="1" source="Lp6IFcDQnF-obYxSoJii-8" target="Lp6IFcDQnF-obYxSoJii-1">
          <mxGeometry relative="1" as="geometry" />
        </mxCell>
        <mxCell id="Lp6IFcDQnF-obYxSoJii-8" value="ViewData" style="swimlane;" vertex="1" parent="1">
          <mxGeometry x="1186" y="855" width="230" height="120" as="geometry" />
        </mxCell>
        <mxCell id="Mt5SznRJf0V5U8LM7rI8-10" value="&lt;div&gt;&lt;font style=&quot;font-size: 10px;&quot;&gt;CameraPosition _currentEditingCameraPosition&lt;/font&gt;&lt;/div&gt;" style="text;strokeColor=none;fillColor=none;align=left;verticalAlign=top;spacingLeft=4;spacingRight=4;overflow=hidden;rotatable=0;points=[[0,0.5],[1,0.5]];portConstraint=eastwest;whiteSpace=wrap;html=1;" vertex="1" parent="Lp6IFcDQnF-obYxSoJii-8">
          <mxGeometry y="25" width="230" height="26" as="geometry" />
        </mxCell>
        <mxCell id="Mt5SznRJf0V5U8LM7rI8-11" value="&lt;div&gt;&lt;font style=&quot;font-size: 10px;&quot;&gt;Dictionary&amp;lt;CameraPosition, CameraViewData&amp;gt; _usingCameraViewDataDictionary&lt;/font&gt;&lt;/div&gt;" style="text;strokeColor=none;fillColor=none;align=left;verticalAlign=top;spacingLeft=4;spacingRight=4;overflow=hidden;rotatable=0;points=[[0,0.5],[1,0.5]];portConstraint=eastwest;whiteSpace=wrap;html=1;" vertex="1" parent="Lp6IFcDQnF-obYxSoJii-8">
          <mxGeometry x="-1" y="51" width="230" height="39" as="geometry" />
        </mxCell>
        <mxCell id="Mt5SznRJf0V5U8LM7rI8-13" value="&lt;div&gt;&lt;font style=&quot;font-size: 10px;&quot;&gt;ViewTuningData _viewTuningData&lt;/font&gt;&lt;/div&gt;" style="text;strokeColor=none;fillColor=none;align=left;verticalAlign=top;spacingLeft=4;spacingRight=4;overflow=hidden;rotatable=0;points=[[0,0.5],[1,0.5]];portConstraint=eastwest;whiteSpace=wrap;html=1;" vertex="1" parent="Lp6IFcDQnF-obYxSoJii-8">
          <mxGeometry x="-1" y="90" width="230" height="26" as="geometry" />
        </mxCell>
        <mxCell id="0piN9PvZCirRsEY30RKc-65" style="edgeStyle=orthogonalEdgeStyle;rounded=0;orthogonalLoop=1;jettySize=auto;html=1;exitX=1;exitY=0.5;exitDx=0;exitDy=0;entryX=0;entryY=0.5;entryDx=0;entryDy=0;" edge="1" parent="1" source="Lp6IFcDQnF-obYxSoJii-10" target="0piN9PvZCirRsEY30RKc-63">
          <mxGeometry relative="1" as="geometry" />
        </mxCell>
        <mxCell id="_QkVNJ4z1gdAD7XROB06-8" style="edgeStyle=orthogonalEdgeStyle;rounded=0;orthogonalLoop=1;jettySize=auto;html=1;exitX=0.5;exitY=0;exitDx=0;exitDy=0;entryX=0.5;entryY=1;entryDx=0;entryDy=0;" edge="1" parent="1" source="Lp6IFcDQnF-obYxSoJii-10" target="0piN9PvZCirRsEY30RKc-84">
          <mxGeometry relative="1" as="geometry" />
        </mxCell>
        <mxCell id="Lp6IFcDQnF-obYxSoJii-10" value="SingleViewData" style="swimlane;" vertex="1" parent="1">
          <mxGeometry x="1651" y="870" width="200" height="90" as="geometry" />
        </mxCell>
        <mxCell id="Mt5SznRJf0V5U8LM7rI8-9" value="&lt;font style=&quot;font-size: 10px;&quot;&gt;ViewTransform _viewTransform&lt;/font&gt;" style="text;strokeColor=none;fillColor=none;align=left;verticalAlign=top;spacingLeft=4;spacingRight=4;overflow=hidden;rotatable=0;points=[[0,0.5],[1,0.5]];portConstraint=eastwest;whiteSpace=wrap;html=1;" vertex="1" parent="Lp6IFcDQnF-obYxSoJii-10">
          <mxGeometry y="25" width="200" height="26" as="geometry" />
        </mxCell>
        <mxCell id="Mt5SznRJf0V5U8LM7rI8-12" value="&lt;font style=&quot;font-size: 10px;&quot;&gt;ProtolessSimulationData _simulationData&lt;/font&gt;" style="text;strokeColor=none;fillColor=none;align=left;verticalAlign=top;spacingLeft=4;spacingRight=4;overflow=hidden;rotatable=0;points=[[0,0.5],[1,0.5]];portConstraint=eastwest;whiteSpace=wrap;html=1;" vertex="1" parent="Lp6IFcDQnF-obYxSoJii-10">
          <mxGeometry y="51" width="200" height="26" as="geometry" />
        </mxCell>
        <mxCell id="Lp6IFcDQnF-obYxSoJii-12" value="1" style="text;html=1;strokeColor=none;fillColor=none;align=center;verticalAlign=middle;whiteSpace=wrap;rounded=0;" vertex="1" parent="1">
          <mxGeometry x="1270" y="729" width="30" height="30" as="geometry" />
        </mxCell>
        <mxCell id="Lp6IFcDQnF-obYxSoJii-13" value="n" style="text;html=1;strokeColor=none;fillColor=none;align=center;verticalAlign=middle;whiteSpace=wrap;rounded=0;" vertex="1" parent="1">
          <mxGeometry x="1270" y="976" width="30" height="30" as="geometry" />
        </mxCell>
        <mxCell id="Lp6IFcDQnF-obYxSoJii-14" value="1" style="text;html=1;strokeColor=none;fillColor=none;align=center;verticalAlign=middle;whiteSpace=wrap;rounded=0;" vertex="1" parent="1">
          <mxGeometry x="1431" y="886" width="30" height="30" as="geometry" />
        </mxCell>
        <mxCell id="Lp6IFcDQnF-obYxSoJii-15" value="n" style="text;html=1;strokeColor=none;fillColor=none;align=center;verticalAlign=middle;whiteSpace=wrap;rounded=0;" vertex="1" parent="1">
          <mxGeometry x="1615" y="880" width="30" height="30" as="geometry" />
        </mxCell>
        <mxCell id="0piN9PvZCirRsEY30RKc-108" style="edgeStyle=orthogonalEdgeStyle;rounded=0;orthogonalLoop=1;jettySize=auto;html=1;exitX=1.004;exitY=-0.011;exitDx=0;exitDy=0;entryX=0;entryY=0.25;entryDx=0;entryDy=0;exitPerimeter=0;" edge="1" parent="1" source="HztQ0t9ekUGvmbXVed-x-87" target="0piN9PvZCirRsEY30RKc-63">
          <mxGeometry relative="1" as="geometry">
            <mxPoint x="2000" y="870" as="targetPoint" />
            <mxPoint x="1851" y="425" as="sourcePoint" />
          </mxGeometry>
        </mxCell>
        <mxCell id="Lp6IFcDQnF-obYxSoJii-18" value="1" style="text;html=1;strokeColor=#700000;fillColor=none;align=center;verticalAlign=middle;whiteSpace=wrap;rounded=0;" vertex="1" parent="1">
          <mxGeometry x="1530" y="190" width="30" height="30" as="geometry" />
        </mxCell>
        <mxCell id="Lp6IFcDQnF-obYxSoJii-21" style="edgeStyle=orthogonalEdgeStyle;rounded=0;orthogonalLoop=1;jettySize=auto;html=1;exitX=1;exitY=0.5;exitDx=0;exitDy=0;entryX=0;entryY=0.5;entryDx=0;entryDy=0;" edge="1" parent="1" target="VrPMQsgIApEenE23pgoX-11">
          <mxGeometry relative="1" as="geometry">
            <Array as="points">
              <mxPoint x="221.5" y="354" />
            </Array>
            <mxPoint x="231.5" y="354.00000000000045" as="sourcePoint" />
          </mxGeometry>
        </mxCell>
        <mxCell id="0piN9PvZCirRsEY30RKc-20" style="edgeStyle=orthogonalEdgeStyle;rounded=0;orthogonalLoop=1;jettySize=auto;html=1;entryX=0;entryY=0.5;entryDx=0;entryDy=0;exitX=1;exitY=0.5;exitDx=0;exitDy=0;" edge="1" parent="1">
          <mxGeometry relative="1" as="geometry">
            <mxPoint x="-56.5" y="1271" as="sourcePoint" />
            <mxPoint x="1203" y="425" as="targetPoint" />
            <Array as="points">
              <mxPoint x="242" y="1270" />
              <mxPoint x="242" y="425" />
            </Array>
          </mxGeometry>
        </mxCell>
        <mxCell id="0piN9PvZCirRsEY30RKc-61" style="edgeStyle=orthogonalEdgeStyle;rounded=0;orthogonalLoop=1;jettySize=auto;html=1;entryX=0;entryY=0.5;entryDx=0;entryDy=0;exitX=1;exitY=0.75;exitDx=0;exitDy=0;" edge="1" parent="1" source="Lp6IFcDQnF-obYxSoJii-19" target="Lp6IFcDQnF-obYxSoJii-1">
          <mxGeometry relative="1" as="geometry">
            <mxPoint x="480" y="1310" as="sourcePoint" />
            <Array as="points">
              <mxPoint x="840" y="1293" />
              <mxPoint x="840" y="1293" />
            </Array>
          </mxGeometry>
        </mxCell>
        <mxCell id="Lp6IFcDQnF-obYxSoJii-19" value="OriginImageLoadWindow" style="swimlane;" vertex="1" parent="1">
          <mxGeometry x="-258.5" y="1226" width="200" height="90" as="geometry" />
        </mxCell>
        <mxCell id="Lp6IFcDQnF-obYxSoJii-24" value="" style="edgeStyle=orthogonalEdgeStyle;rounded=0;orthogonalLoop=1;jettySize=auto;html=1;entryX=0;entryY=0.5;entryDx=0;entryDy=0;exitX=1;exitY=0.25;exitDx=0;exitDy=0;" edge="1" parent="1" source="Lp6IFcDQnF-obYxSoJii-19" target="VrPMQsgIApEenE23pgoX-11">
          <mxGeometry relative="1" as="geometry">
            <mxPoint x="-18.5" y="1290" as="sourcePoint" />
            <mxPoint x="211.5" y="355.00000000000045" as="targetPoint" />
            <Array as="points">
              <mxPoint x="221.5" y="1250" />
              <mxPoint x="221.5" y="355" />
              <mxPoint x="298.5" y="355" />
            </Array>
          </mxGeometry>
        </mxCell>
        <mxCell id="Lp6IFcDQnF-obYxSoJii-34" value="" style="ellipse;whiteSpace=wrap;html=1;aspect=fixed;" vertex="1" parent="1">
          <mxGeometry x="-88.5" y="344" width="20" height="20" as="geometry" />
        </mxCell>
        <mxCell id="Lp6IFcDQnF-obYxSoJii-35" value="" style="ellipse;whiteSpace=wrap;html=1;aspect=fixed;" vertex="1" parent="1">
          <mxGeometry x="-87.5" y="464" width="20" height="20" as="geometry" />
        </mxCell>
        <mxCell id="Lp6IFcDQnF-obYxSoJii-36" value="" style="ellipse;whiteSpace=wrap;html=1;aspect=fixed;" vertex="1" parent="1">
          <mxGeometry x="-88.5" y="585" width="20" height="20" as="geometry" />
        </mxCell>
        <mxCell id="Lp6IFcDQnF-obYxSoJii-39" value="OriginalCameraData" style="swimlane;" vertex="1" parent="1">
          <mxGeometry x="1283" y="1240" width="200" height="90" as="geometry" />
        </mxCell>
        <mxCell id="Lp6IFcDQnF-obYxSoJii-41" value="1" style="text;html=1;strokeColor=none;fillColor=none;align=center;verticalAlign=middle;whiteSpace=wrap;rounded=0;" vertex="1" parent="1">
          <mxGeometry x="1193" y="1250" width="30" height="30" as="geometry" />
        </mxCell>
        <mxCell id="Lp6IFcDQnF-obYxSoJii-42" value="n" style="text;html=1;strokeColor=none;fillColor=none;align=center;verticalAlign=middle;whiteSpace=wrap;rounded=0;" vertex="1" parent="1">
          <mxGeometry x="1244" y="1247" width="30" height="30" as="geometry" />
        </mxCell>
        <mxCell id="Lp6IFcDQnF-obYxSoJii-44" value="n" style="text;html=1;strokeColor=none;fillColor=none;align=center;verticalAlign=middle;whiteSpace=wrap;rounded=0;" vertex="1" parent="1">
          <mxGeometry x="1267" y="824" width="30" height="30" as="geometry" />
        </mxCell>
        <mxCell id="Lp6IFcDQnF-obYxSoJii-45" value="1" style="text;html=1;strokeColor=none;fillColor=none;align=center;verticalAlign=middle;whiteSpace=wrap;rounded=0;" vertex="1" parent="1">
          <mxGeometry x="1050" y="1210" width="30" height="30" as="geometry" />
        </mxCell>
        <mxCell id="Lp6IFcDQnF-obYxSoJii-48" value="" style="shape=flexArrow;endArrow=classic;html=1;rounded=0;" edge="1" parent="1">
          <mxGeometry width="50" height="50" relative="1" as="geometry">
            <mxPoint x="907" y="29" as="sourcePoint" />
            <mxPoint x="1037" y="29" as="targetPoint" />
          </mxGeometry>
        </mxCell>
        <mxCell id="Lp6IFcDQnF-obYxSoJii-49" value="Data" style="text;html=1;align=center;verticalAlign=middle;resizable=0;points=[];autosize=1;strokeColor=none;fillColor=none;fontSize=30;" vertex="1" parent="1">
          <mxGeometry x="936" y="49" width="90" height="50" as="geometry" />
        </mxCell>
        <mxCell id="Lp6IFcDQnF-obYxSoJii-50" value="View / ViewModel" style="text;html=1;align=center;verticalAlign=middle;resizable=0;points=[];autosize=1;strokeColor=none;fillColor=none;fontSize=30;" vertex="1" parent="1">
          <mxGeometry x="586" y="49" width="260" height="50" as="geometry" />
        </mxCell>
        <mxCell id="Lp6IFcDQnF-obYxSoJii-51" value="" style="shape=flexArrow;endArrow=classic;html=1;rounded=0;" edge="1" parent="1">
          <mxGeometry width="50" height="50" relative="1" as="geometry">
            <mxPoint x="889" y="29" as="sourcePoint" />
            <mxPoint x="759" y="29" as="targetPoint" />
          </mxGeometry>
        </mxCell>
        <mxCell id="0piN9PvZCirRsEY30RKc-1" value="" style="endArrow=none;html=1;rounded=0;strokeWidth=3;dashed=1;" edge="1" parent="1">
          <mxGeometry width="50" height="50" relative="1" as="geometry">
            <mxPoint x="899" y="1950" as="sourcePoint" />
            <mxPoint x="898" y="-100" as="targetPoint" />
          </mxGeometry>
        </mxCell>
        <mxCell id="0piN9PvZCirRsEY30RKc-7" style="edgeStyle=orthogonalEdgeStyle;rounded=0;orthogonalLoop=1;jettySize=auto;html=1;exitX=1;exitY=0.5;exitDx=0;exitDy=0;entryX=0;entryY=0.5;entryDx=0;entryDy=0;" edge="1" parent="1" source="0piN9PvZCirRsEY30RKc-5" target="VrPMQsgIApEenE23pgoX-11">
          <mxGeometry relative="1" as="geometry">
            <Array as="points">
              <mxPoint x="221.5" y="128" />
              <mxPoint x="221.5" y="354" />
            </Array>
          </mxGeometry>
        </mxCell>
        <mxCell id="0piN9PvZCirRsEY30RKc-5" value="CameraViewExpandedWindow" style="swimlane;" vertex="1" parent="1">
          <mxGeometry x="-48.5" y="83" width="200" height="90" as="geometry" />
        </mxCell>
        <mxCell id="0piN9PvZCirRsEY30RKc-8" value="CameraDataToggleViewModel" style="swimlane;" vertex="1" parent="1">
          <mxGeometry x="298.5" y="494" width="200" height="90" as="geometry" />
        </mxCell>
        <mxCell id="0piN9PvZCirRsEY30RKc-13" style="edgeStyle=orthogonalEdgeStyle;rounded=0;orthogonalLoop=1;jettySize=auto;html=1;exitX=0.5;exitY=1;exitDx=0;exitDy=0;entryX=0;entryY=0.5;entryDx=0;entryDy=0;" edge="1" parent="1" source="0piN9PvZCirRsEY30RKc-11" target="VrPMQsgIApEenE23pgoX-11">
          <mxGeometry relative="1" as="geometry">
            <Array as="points">
              <mxPoint x="-208.5" y="700" />
              <mxPoint x="221.5" y="700" />
              <mxPoint x="221.5" y="354" />
            </Array>
          </mxGeometry>
        </mxCell>
        <mxCell id="0piN9PvZCirRsEY30RKc-15" style="edgeStyle=orthogonalEdgeStyle;rounded=0;orthogonalLoop=1;jettySize=auto;html=1;exitX=0.5;exitY=1;exitDx=0;exitDy=0;entryX=0;entryY=0.5;entryDx=0;entryDy=0;" edge="1" parent="1" source="0piN9PvZCirRsEY30RKc-11" target="0piN9PvZCirRsEY30RKc-14">
          <mxGeometry relative="1" as="geometry" />
        </mxCell>
        <mxCell id="0piN9PvZCirRsEY30RKc-17" style="edgeStyle=orthogonalEdgeStyle;rounded=0;orthogonalLoop=1;jettySize=auto;html=1;exitX=0.5;exitY=1;exitDx=0;exitDy=0;entryX=0;entryY=0.5;entryDx=0;entryDy=0;" edge="1" parent="1" source="0piN9PvZCirRsEY30RKc-11" target="0piN9PvZCirRsEY30RKc-16">
          <mxGeometry relative="1" as="geometry" />
        </mxCell>
        <mxCell id="0piN9PvZCirRsEY30RKc-19" style="edgeStyle=orthogonalEdgeStyle;rounded=0;orthogonalLoop=1;jettySize=auto;html=1;exitX=0.5;exitY=1;exitDx=0;exitDy=0;entryX=0;entryY=0.5;entryDx=0;entryDy=0;" edge="1" parent="1" source="0piN9PvZCirRsEY30RKc-11" target="0piN9PvZCirRsEY30RKc-18">
          <mxGeometry relative="1" as="geometry" />
        </mxCell>
        <mxCell id="0piN9PvZCirRsEY30RKc-11" value="ParameterControlView" style="swimlane;" vertex="1" parent="1">
          <mxGeometry x="-308.5" y="550" width="200" height="90" as="geometry" />
        </mxCell>
        <mxCell id="0piN9PvZCirRsEY30RKc-28" style="edgeStyle=orthogonalEdgeStyle;rounded=0;orthogonalLoop=1;jettySize=auto;html=1;exitX=1;exitY=0.75;exitDx=0;exitDy=0;entryX=0;entryY=0.5;entryDx=0;entryDy=0;" edge="1" parent="1" source="0piN9PvZCirRsEY30RKc-14">
          <mxGeometry relative="1" as="geometry">
            <Array as="points">
              <mxPoint x="242" y="1048" />
              <mxPoint x="242" y="425" />
            </Array>
            <mxPoint x="153.5" y="1048.5" as="sourcePoint" />
            <mxPoint x="1203" y="425" as="targetPoint" />
          </mxGeometry>
        </mxCell>
        <mxCell id="0piN9PvZCirRsEY30RKc-30" style="edgeStyle=orthogonalEdgeStyle;rounded=0;orthogonalLoop=1;jettySize=auto;html=1;exitX=1;exitY=0.5;exitDx=0;exitDy=0;entryX=0;entryY=0.5;entryDx=0;entryDy=0;" edge="1" parent="1" source="0piN9PvZCirRsEY30RKc-14" target="VrPMQsgIApEenE23pgoX-11">
          <mxGeometry relative="1" as="geometry">
            <Array as="points">
              <mxPoint x="221.5" y="1026" />
              <mxPoint x="221.5" y="354" />
            </Array>
          </mxGeometry>
        </mxCell>
        <mxCell id="0piN9PvZCirRsEY30RKc-14" value="CameraParameterTopViewControlView" style="swimlane;" vertex="1" parent="1">
          <mxGeometry x="-48.5" y="981" width="198.5" height="89" as="geometry" />
        </mxCell>
        <mxCell id="0piN9PvZCirRsEY30RKc-25" style="edgeStyle=orthogonalEdgeStyle;rounded=0;orthogonalLoop=1;jettySize=auto;html=1;exitX=1;exitY=0.5;exitDx=0;exitDy=0;entryX=0;entryY=0.5;entryDx=0;entryDy=0;" edge="1" parent="1">
          <mxGeometry relative="1" as="geometry">
            <Array as="points">
              <mxPoint x="242" y="1156" />
              <mxPoint x="242" y="425" />
            </Array>
            <mxPoint x="153.5" y="1156" as="sourcePoint" />
            <mxPoint x="1203" y="425" as="targetPoint" />
          </mxGeometry>
        </mxCell>
        <mxCell id="0piN9PvZCirRsEY30RKc-16" value="LutSaveControlView" style="swimlane;" vertex="1" parent="1">
          <mxGeometry x="-48.5" y="1111" width="200" height="90" as="geometry" />
        </mxCell>
        <mxCell id="0piN9PvZCirRsEY30RKc-21" style="edgeStyle=orthogonalEdgeStyle;rounded=0;orthogonalLoop=1;jettySize=auto;html=1;exitX=1;exitY=0.5;exitDx=0;exitDy=0;entryX=0;entryY=0.5;entryDx=0;entryDy=0;" edge="1" parent="1" source="0piN9PvZCirRsEY30RKc-22" target="VrPMQsgIApEenE23pgoX-11">
          <mxGeometry relative="1" as="geometry">
            <Array as="points">
              <mxPoint x="221.5" y="354" />
            </Array>
          </mxGeometry>
        </mxCell>
        <mxCell id="0piN9PvZCirRsEY30RKc-18" value="ParameterTypeSelectView" style="swimlane;" vertex="1" parent="1">
          <mxGeometry x="-48.5" y="720" width="200" height="90" as="geometry" />
        </mxCell>
        <mxCell id="0piN9PvZCirRsEY30RKc-23" value="" style="edgeStyle=orthogonalEdgeStyle;rounded=0;orthogonalLoop=1;jettySize=auto;html=1;exitX=1;exitY=0.5;exitDx=0;exitDy=0;entryX=0;entryY=0.5;entryDx=0;entryDy=0;" edge="1" parent="1" source="0piN9PvZCirRsEY30RKc-18" target="0piN9PvZCirRsEY30RKc-22">
          <mxGeometry relative="1" as="geometry">
            <mxPoint x="151.5" y="765" as="sourcePoint" />
            <mxPoint x="298.5" y="354" as="targetPoint" />
            <Array as="points">
              <mxPoint x="221.5" y="765" />
            </Array>
          </mxGeometry>
        </mxCell>
        <mxCell id="0piN9PvZCirRsEY30RKc-22" value="" style="ellipse;whiteSpace=wrap;html=1;aspect=fixed;" vertex="1" parent="1">
          <mxGeometry x="211.5" y="344" width="20" height="20" as="geometry" />
        </mxCell>
        <mxCell id="0piN9PvZCirRsEY30RKc-31" value="" style="ellipse;whiteSpace=wrap;html=1;aspect=fixed;" vertex="1" parent="1">
          <mxGeometry x="231.5" y="1146" width="20" height="20" as="geometry" />
        </mxCell>
        <mxCell id="0piN9PvZCirRsEY30RKc-33" value="" style="ellipse;whiteSpace=wrap;html=1;aspect=fixed;" vertex="1" parent="1">
          <mxGeometry x="213.5" y="755" width="20" height="20" as="geometry" />
        </mxCell>
        <mxCell id="0piN9PvZCirRsEY30RKc-34" value="" style="ellipse;whiteSpace=wrap;html=1;aspect=fixed;" vertex="1" parent="1">
          <mxGeometry x="213.5" y="886" width="20" height="20" as="geometry" />
        </mxCell>
        <mxCell id="0piN9PvZCirRsEY30RKc-35" value="" style="ellipse;whiteSpace=wrap;html=1;aspect=fixed;" vertex="1" parent="1">
          <mxGeometry x="212.5" y="1016" width="20" height="20" as="geometry" />
        </mxCell>
        <mxCell id="0piN9PvZCirRsEY30RKc-38" value="" style="ellipse;whiteSpace=wrap;html=1;aspect=fixed;" vertex="1" parent="1">
          <mxGeometry x="212.5" y="585" width="20" height="20" as="geometry" />
        </mxCell>
        <mxCell id="0piN9PvZCirRsEY30RKc-39" value="" style="ellipse;whiteSpace=wrap;html=1;aspect=fixed;" vertex="1" parent="1">
          <mxGeometry x="-217.5" y="1017" width="20" height="20" as="geometry" />
        </mxCell>
        <mxCell id="0piN9PvZCirRsEY30RKc-42" style="edgeStyle=orthogonalEdgeStyle;rounded=0;orthogonalLoop=1;jettySize=auto;html=1;exitX=0;exitY=0.75;exitDx=0;exitDy=0;entryX=0;entryY=0.5;entryDx=0;entryDy=0;" edge="1" parent="1">
          <mxGeometry relative="1" as="geometry">
            <Array as="points">
              <mxPoint x="242" y="988" />
              <mxPoint x="242" y="425" />
            </Array>
            <mxPoint x="300.5" y="987.5" as="sourcePoint" />
            <mxPoint x="1203" y="425" as="targetPoint" />
          </mxGeometry>
        </mxCell>
        <mxCell id="0piN9PvZCirRsEY30RKc-40" value="LutSaveControlView" style="swimlane;" vertex="1" parent="1">
          <mxGeometry x="298.5" y="920" width="200" height="90" as="geometry" />
        </mxCell>
        <mxCell id="0piN9PvZCirRsEY30RKc-43" value="OriginalImageRoiWindow" style="swimlane;" vertex="1" parent="1">
          <mxGeometry x="298.5" y="786" width="200" height="90" as="geometry" />
        </mxCell>
        <mxCell id="0piN9PvZCirRsEY30RKc-45" value="" style="ellipse;whiteSpace=wrap;html=1;aspect=fixed;" vertex="1" parent="1">
          <mxGeometry x="232.5" y="979" width="20" height="20" as="geometry" />
        </mxCell>
        <mxCell id="0piN9PvZCirRsEY30RKc-58" style="edgeStyle=orthogonalEdgeStyle;rounded=0;orthogonalLoop=1;jettySize=auto;html=1;exitX=0.5;exitY=1;exitDx=0;exitDy=0;" edge="1" parent="1" source="0piN9PvZCirRsEY30RKc-46" target="0piN9PvZCirRsEY30RKc-56">
          <mxGeometry relative="1" as="geometry" />
        </mxCell>
        <mxCell id="0piN9PvZCirRsEY30RKc-46" value="SImulationSettingWindow" style="swimlane;" vertex="1" parent="1">
          <mxGeometry x="-150" y="1350" width="200" height="90" as="geometry" />
        </mxCell>
        <mxCell id="0piN9PvZCirRsEY30RKc-62" style="edgeStyle=orthogonalEdgeStyle;rounded=0;orthogonalLoop=1;jettySize=auto;html=1;exitX=1;exitY=0.5;exitDx=0;exitDy=0;entryX=0;entryY=0.5;entryDx=0;entryDy=0;strokeColor=#700000;" edge="1" parent="1" source="0piN9PvZCirRsEY30RKc-56" target="0piN9PvZCirRsEY30RKc-59">
          <mxGeometry relative="1" as="geometry" />
        </mxCell>
        <mxCell id="0piN9PvZCirRsEY30RKc-56" value="" style="rounded=0;whiteSpace=wrap;html=1;" vertex="1" parent="1">
          <mxGeometry x="-150" y="1484" width="570" height="275" as="geometry" />
        </mxCell>
        <mxCell id="0piN9PvZCirRsEY30RKc-49" value="SimulationPositionSettingView" style="swimlane;" vertex="1" parent="1">
          <mxGeometry x="-90" y="1514" width="200" height="90" as="geometry" />
        </mxCell>
        <mxCell id="0piN9PvZCirRsEY30RKc-50" value="SimulationPositionSettingView" style="swimlane;" vertex="1" parent="1">
          <mxGeometry x="150" y="1514" width="200" height="90" as="geometry" />
        </mxCell>
        <mxCell id="0piN9PvZCirRsEY30RKc-52" value="SimulationPositionSettingView" style="swimlane;" vertex="1" parent="1">
          <mxGeometry x="150" y="1629" width="200" height="90" as="geometry" />
        </mxCell>
        <mxCell id="0piN9PvZCirRsEY30RKc-55" value="SimulationPositionSettingView" style="swimlane;" vertex="1" parent="1">
          <mxGeometry x="-90" y="1629" width="200" height="90" as="geometry" />
        </mxCell>
        <mxCell id="0piN9PvZCirRsEY30RKc-59" value="SimulationSettingDataManager" style="swimlane;strokeColor=#700000;" vertex="1" parent="1">
          <mxGeometry x="1250" y="1576.5" width="200" height="90" as="geometry" />
        </mxCell>
        <mxCell id="0piN9PvZCirRsEY30RKc-92" style="edgeStyle=orthogonalEdgeStyle;rounded=0;orthogonalLoop=1;jettySize=auto;html=1;exitX=1;exitY=0.5;exitDx=0;exitDy=0;entryX=0;entryY=0.5;entryDx=0;entryDy=0;" edge="1" parent="1" source="0piN9PvZCirRsEY30RKc-63" target="0piN9PvZCirRsEY30RKc-91">
          <mxGeometry relative="1" as="geometry" />
        </mxCell>
        <mxCell id="0piN9PvZCirRsEY30RKc-99" style="edgeStyle=orthogonalEdgeStyle;rounded=0;orthogonalLoop=1;jettySize=auto;html=1;exitX=1;exitY=0.5;exitDx=0;exitDy=0;entryX=0;entryY=0.5;entryDx=0;entryDy=0;" edge="1" parent="1" source="0piN9PvZCirRsEY30RKc-63" target="0piN9PvZCirRsEY30RKc-98">
          <mxGeometry relative="1" as="geometry" />
        </mxCell>
        <mxCell id="0piN9PvZCirRsEY30RKc-63" value="ViewTransform" style="swimlane;startSize=23;" vertex="1" parent="1">
          <mxGeometry x="2050" y="769" width="200" height="90" as="geometry" />
        </mxCell>
        <mxCell id="0piN9PvZCirRsEY30RKc-80" style="edgeStyle=orthogonalEdgeStyle;rounded=0;orthogonalLoop=1;jettySize=auto;html=1;exitX=0;exitY=0.5;exitDx=0;exitDy=0;entryX=1;entryY=0.5;entryDx=0;entryDy=0;strokeColor=#700000;" edge="1" parent="1" source="0piN9PvZCirRsEY30RKc-64" target="0piN9PvZCirRsEY30RKc-59">
          <mxGeometry relative="1" as="geometry">
            <Array as="points">
              <mxPoint x="1750" y="986" />
              <mxPoint x="1750" y="1622" />
            </Array>
          </mxGeometry>
        </mxCell>
        <mxCell id="B1zPYaPTXL17asJoGEsx-2" style="edgeStyle=orthogonalEdgeStyle;rounded=0;orthogonalLoop=1;jettySize=auto;html=1;entryX=0.5;entryY=0;entryDx=0;entryDy=0;" edge="1" parent="1" source="0piN9PvZCirRsEY30RKc-64" target="HztQ0t9ekUGvmbXVed-x-100">
          <mxGeometry relative="1" as="geometry" />
        </mxCell>
        <mxCell id="0piN9PvZCirRsEY30RKc-64" value="CoorindateSystem" style="swimlane;" vertex="1" parent="1">
          <mxGeometry x="2060" y="941" width="200" height="90" as="geometry" />
        </mxCell>
        <mxCell id="0piN9PvZCirRsEY30RKc-67" value="" style="ellipse;whiteSpace=wrap;html=1;aspect=fixed;" vertex="1" parent="1">
          <mxGeometry x="232.5" y="607" width="20" height="20" as="geometry" />
        </mxCell>
        <mxCell id="0piN9PvZCirRsEY30RKc-68" value="" style="ellipse;whiteSpace=wrap;html=1;aspect=fixed;" vertex="1" parent="1">
          <mxGeometry x="232.5" y="487" width="20" height="20" as="geometry" />
        </mxCell>
        <mxCell id="0piN9PvZCirRsEY30RKc-69" value="" style="ellipse;whiteSpace=wrap;html=1;aspect=fixed;" vertex="1" parent="1">
          <mxGeometry x="232.5" y="415" width="20" height="20" as="geometry" />
        </mxCell>
        <mxCell id="0piN9PvZCirRsEY30RKc-70" value="" style="ellipse;whiteSpace=wrap;html=1;aspect=fixed;" vertex="1" parent="1">
          <mxGeometry x="232.5" y="367" width="20" height="20" as="geometry" />
        </mxCell>
        <mxCell id="0piN9PvZCirRsEY30RKc-74" value="" style="ellipse;whiteSpace=wrap;html=1;aspect=fixed;" vertex="1" parent="1">
          <mxGeometry x="-218.5" y="886" width="20" height="20" as="geometry" />
        </mxCell>
        <mxCell id="0piN9PvZCirRsEY30RKc-75" value="" style="ellipse;whiteSpace=wrap;html=1;aspect=fixed;" vertex="1" parent="1">
          <mxGeometry x="-218.5" y="754" width="20" height="20" as="geometry" />
        </mxCell>
        <mxCell id="0piN9PvZCirRsEY30RKc-76" value="" style="ellipse;whiteSpace=wrap;html=1;aspect=fixed;" vertex="1" parent="1">
          <mxGeometry x="-217.5" y="689" width="20" height="20" as="geometry" />
        </mxCell>
        <mxCell id="0piN9PvZCirRsEY30RKc-77" value="" style="ellipse;whiteSpace=wrap;html=1;aspect=fixed;" vertex="1" parent="1">
          <mxGeometry x="232.5" y="909" width="20" height="20" as="geometry" />
        </mxCell>
        <mxCell id="0piN9PvZCirRsEY30RKc-79" value="1" style="text;html=1;strokeColor=none;fillColor=none;align=center;verticalAlign=middle;whiteSpace=wrap;rounded=0;" vertex="1" parent="1">
          <mxGeometry x="1401" y="390" width="30" height="30" as="geometry" />
        </mxCell>
        <mxCell id="0piN9PvZCirRsEY30RKc-81" value="" style="ellipse;whiteSpace=wrap;html=1;aspect=fixed;" vertex="1" parent="1">
          <mxGeometry x="232.5" y="1039" width="20" height="20" as="geometry" />
        </mxCell>
        <mxCell id="0piN9PvZCirRsEY30RKc-82" value="" style="ellipse;whiteSpace=wrap;html=1;aspect=fixed;" vertex="1" parent="1">
          <mxGeometry x="212.5" y="464" width="20" height="20" as="geometry" />
        </mxCell>
        <mxCell id="0piN9PvZCirRsEY30RKc-83" value="" style="ellipse;whiteSpace=wrap;html=1;aspect=fixed;" vertex="1" parent="1">
          <mxGeometry x="-387.5" y="1260" width="20" height="20" as="geometry" />
        </mxCell>
        <mxCell id="0piN9PvZCirRsEY30RKc-84" value="ViewTuningData" style="swimlane;" vertex="1" parent="1">
          <mxGeometry x="1651" y="669" width="200" height="90" as="geometry" />
        </mxCell>
        <mxCell id="0piN9PvZCirRsEY30RKc-89" value="" style="rounded=0;whiteSpace=wrap;html=1;opacity=40;strokeWidth=5;perimeterSpacing=11;gradientColor=none;" vertex="1" parent="1">
          <mxGeometry x="2020" y="199" width="260" height="510" as="geometry" />
        </mxCell>
        <mxCell id="0piN9PvZCirRsEY30RKc-86" value="ViewTransformCylinder" style="swimlane;" vertex="1" parent="1">
          <mxGeometry x="2050" y="468" width="200" height="90" as="geometry" />
        </mxCell>
        <mxCell id="0piN9PvZCirRsEY30RKc-87" value="ViewTransformSphere" style="swimlane;" vertex="1" parent="1">
          <mxGeometry x="2050" y="588" width="200" height="90" as="geometry" />
        </mxCell>
        <mxCell id="0piN9PvZCirRsEY30RKc-88" value="ViewTransformPinhole" style="swimlane;" vertex="1" parent="1">
          <mxGeometry x="2050" y="348" width="200" height="90" as="geometry" />
        </mxCell>
        <mxCell id="0piN9PvZCirRsEY30RKc-90" value="" style="endArrow=block;dashed=1;endFill=0;endSize=12;html=1;rounded=0;exitX=0.5;exitY=0;exitDx=0;exitDy=0;entryX=0.5;entryY=1;entryDx=0;entryDy=0;" edge="1" parent="1" source="0piN9PvZCirRsEY30RKc-63" target="0piN9PvZCirRsEY30RKc-89">
          <mxGeometry width="160" relative="1" as="geometry">
            <mxPoint x="2300" y="579" as="sourcePoint" />
            <mxPoint x="2460" y="579" as="targetPoint" />
          </mxGeometry>
        </mxCell>
        <mxCell id="0piN9PvZCirRsEY30RKc-91" value="CameraModel" style="swimlane;" vertex="1" parent="1">
          <mxGeometry x="2390" y="769" width="200" height="90" as="geometry" />
        </mxCell>
        <mxCell id="0piN9PvZCirRsEY30RKc-93" value="" style="rounded=0;whiteSpace=wrap;html=1;opacity=40;strokeWidth=5;" vertex="1" parent="1">
          <mxGeometry x="2360" y="199" width="260" height="510" as="geometry" />
        </mxCell>
        <mxCell id="0piN9PvZCirRsEY30RKc-94" value="CameraModelCylinder" style="swimlane;" vertex="1" parent="1">
          <mxGeometry x="2390" y="468" width="200" height="90" as="geometry" />
        </mxCell>
        <mxCell id="0piN9PvZCirRsEY30RKc-95" value="CameraModelSphere" style="swimlane;" vertex="1" parent="1">
          <mxGeometry x="2390" y="588" width="200" height="90" as="geometry" />
        </mxCell>
        <mxCell id="0piN9PvZCirRsEY30RKc-96" value="CameraModelPinhole" style="swimlane;" vertex="1" parent="1">
          <mxGeometry x="2390" y="348" width="200" height="90" as="geometry" />
        </mxCell>
        <mxCell id="0piN9PvZCirRsEY30RKc-97" value="" style="endArrow=block;dashed=1;endFill=0;endSize=12;html=1;rounded=0;exitX=0.5;exitY=0;exitDx=0;exitDy=0;entryX=0.5;entryY=1;entryDx=0;entryDy=0;" edge="1" parent="1" source="0piN9PvZCirRsEY30RKc-91" target="0piN9PvZCirRsEY30RKc-93">
          <mxGeometry width="160" relative="1" as="geometry">
            <mxPoint x="2430" y="760" as="sourcePoint" />
            <mxPoint x="2430" y="700" as="targetPoint" />
          </mxGeometry>
        </mxCell>
        <mxCell id="0piN9PvZCirRsEY30RKc-98" value="Lut" style="swimlane;" vertex="1" parent="1">
          <mxGeometry x="2390" y="888" width="200" height="90" as="geometry" />
        </mxCell>
        <mxCell id="0piN9PvZCirRsEY30RKc-100" value="" style="ellipse;whiteSpace=wrap;html=1;aspect=fixed;" vertex="1" parent="1">
          <mxGeometry x="2310" y="805" width="20" height="20" as="geometry" />
        </mxCell>
        <mxCell id="0piN9PvZCirRsEY30RKc-104" value="1" style="text;html=1;strokeColor=none;fillColor=none;align=center;verticalAlign=middle;whiteSpace=wrap;rounded=0;" vertex="1" parent="1">
          <mxGeometry x="1461" y="1635" width="30" height="30" as="geometry" />
        </mxCell>
        <mxCell id="0piN9PvZCirRsEY30RKc-107" value="ViewTransformTopView" style="swimlane;" vertex="1" parent="1">
          <mxGeometry x="2050" y="227" width="200" height="90" as="geometry" />
        </mxCell>
        <mxCell id="0piN9PvZCirRsEY30RKc-109" value="CameraModelTopViewPinhole" style="swimlane;" vertex="1" parent="1">
          <mxGeometry x="2390" y="228" width="200" height="90" as="geometry" />
        </mxCell>
        <mxCell id="Mt5SznRJf0V5U8LM7rI8-17" value="" style="ellipse;whiteSpace=wrap;html=1;aspect=fixed;" vertex="1" parent="1">
          <mxGeometry x="2309" y="923" width="20" height="20" as="geometry" />
        </mxCell>
        <mxCell id="_QkVNJ4z1gdAD7XROB06-15" style="edgeStyle=orthogonalEdgeStyle;rounded=0;orthogonalLoop=1;jettySize=auto;html=1;exitX=0.5;exitY=1;exitDx=0;exitDy=0;" edge="1" parent="1" source="_QkVNJ4z1gdAD7XROB06-4" target="_QkVNJ4z1gdAD7XROB06-14">
          <mxGeometry relative="1" as="geometry" />
        </mxCell>
        <mxCell id="_QkVNJ4z1gdAD7XROB06-20" style="edgeStyle=orthogonalEdgeStyle;rounded=0;orthogonalLoop=1;jettySize=auto;html=1;exitX=0.5;exitY=0;exitDx=0;exitDy=0;entryX=0;entryY=0.5;entryDx=0;entryDy=0;" edge="1" parent="1" source="_QkVNJ4z1gdAD7XROB06-4" target="0piN9PvZCirRsEY30RKc-84">
          <mxGeometry relative="1" as="geometry">
            <Array as="points">
              <mxPoint x="645" y="790" />
              <mxPoint x="1500" y="790" />
              <mxPoint x="1500" y="714" />
            </Array>
          </mxGeometry>
        </mxCell>
        <mxCell id="_QkVNJ4z1gdAD7XROB06-4" value="ViewTuningResultWindow" style="swimlane;" vertex="1" parent="1">
          <mxGeometry x="545" y="880" width="200" height="90" as="geometry" />
        </mxCell>
        <mxCell id="_QkVNJ4z1gdAD7XROB06-10" value="ViewTuningDisplayView" style="swimlane;" vertex="1" parent="1">
          <mxGeometry x="439" y="1068" width="200" height="90" as="geometry" />
        </mxCell>
        <mxCell id="_QkVNJ4z1gdAD7XROB06-11" value="ViewTuningResultStraightness" style="swimlane;" vertex="1" parent="1">
          <mxGeometry x="660" y="1068" width="200" height="90" as="geometry" />
        </mxCell>
        <mxCell id="_QkVNJ4z1gdAD7XROB06-12" value="ViewTuningResultVisibility" style="swimlane;" vertex="1" parent="1">
          <mxGeometry x="660" y="1179" width="200" height="90" as="geometry" />
        </mxCell>
        <mxCell id="_QkVNJ4z1gdAD7XROB06-13" value="ViewTuningResultPerspectiveRatio" style="swimlane;" vertex="1" parent="1">
          <mxGeometry x="439" y="1179" width="200" height="90" as="geometry" />
        </mxCell>
        <mxCell id="_QkVNJ4z1gdAD7XROB06-21" value="1" style="text;html=1;strokeColor=none;fillColor=none;align=center;verticalAlign=middle;whiteSpace=wrap;rounded=0;" vertex="1" parent="1">
          <mxGeometry x="1150" y="890" width="30" height="30" as="geometry" />
        </mxCell>
        <mxCell id="_QkVNJ4z1gdAD7XROB06-17" style="edgeStyle=orthogonalEdgeStyle;rounded=0;orthogonalLoop=1;jettySize=auto;html=1;exitX=0;exitY=0.5;exitDx=0;exitDy=0;entryX=1;entryY=0.5;entryDx=0;entryDy=0;" edge="1" parent="1" source="Mt5SznRJf0V5U8LM7rI8-11" target="_QkVNJ4z1gdAD7XROB06-4">
          <mxGeometry relative="1" as="geometry">
            <mxPoint x="1040" y="1010" as="targetPoint" />
          </mxGeometry>
        </mxCell>
        <mxCell id="_QkVNJ4z1gdAD7XROB06-22" value="1" style="text;html=1;strokeColor=none;fillColor=none;align=center;verticalAlign=middle;whiteSpace=wrap;rounded=0;" vertex="1" parent="1">
          <mxGeometry x="750" y="896" width="30" height="30" as="geometry" />
        </mxCell>
        <mxCell id="_QkVNJ4z1gdAD7XROB06-23" value="1" style="text;html=1;strokeColor=none;fillColor=none;align=center;verticalAlign=middle;whiteSpace=wrap;rounded=0;" vertex="1" parent="1">
          <mxGeometry x="609" y="850" width="30" height="30" as="geometry" />
        </mxCell>
        <mxCell id="_QkVNJ4z1gdAD7XROB06-24" value="1" style="text;html=1;strokeColor=none;fillColor=none;align=center;verticalAlign=middle;whiteSpace=wrap;rounded=0;" vertex="1" parent="1">
          <mxGeometry x="1616" y="684" width="30" height="30" as="geometry" />
        </mxCell>
        <mxCell id="Mt5SznRJf0V5U8LM7rI8-14" value="" style="rounded=0;whiteSpace=wrap;html=1;opacity=40;strokeWidth=5;perimeterSpacing=11;gradientColor=none;" vertex="1" parent="1">
          <mxGeometry x="-79.25" y="708" width="260" height="510" as="geometry" />
        </mxCell>
        <mxCell id="HztQ0t9ekUGvmbXVed-x-67" value="TopViewDataManager" style="swimlane;" vertex="1" parent="1">
          <mxGeometry x="1174.5" y="173" width="200" height="90" as="geometry" />
        </mxCell>
        <mxCell id="HztQ0t9ekUGvmbXVed-x-68" value="&lt;div&gt;ViewEnum _currentSelectedView&amp;nbsp;&lt;/div&gt;" style="text;strokeColor=none;fillColor=none;align=left;verticalAlign=top;spacingLeft=4;spacingRight=4;overflow=hidden;rotatable=0;points=[[0,0.5],[1,0.5]];portConstraint=eastwest;whiteSpace=wrap;html=1;" vertex="1" parent="HztQ0t9ekUGvmbXVed-x-67">
          <mxGeometry y="23" width="200" height="26" as="geometry" />
        </mxCell>
        <mxCell id="HztQ0t9ekUGvmbXVed-x-69" value="&lt;div&gt;&lt;font style=&quot;font-size: 9px;&quot;&gt;Dictionary&amp;lt;ViewEnum,ViewDataCollection&amp;gt; _viewDataCollectionDictionary&lt;/font&gt;&lt;br&gt;&lt;/div&gt;" style="text;strokeColor=none;fillColor=none;align=left;verticalAlign=top;spacingLeft=4;spacingRight=4;overflow=hidden;rotatable=0;points=[[0,0.5],[1,0.5]];portConstraint=eastwest;whiteSpace=wrap;html=1;" vertex="1" parent="HztQ0t9ekUGvmbXVed-x-67">
          <mxGeometry x="-1" y="49" width="200" height="41" as="geometry" />
        </mxCell>
        <mxCell id="HztQ0t9ekUGvmbXVed-x-71" value="TopViewDataCollection" style="swimlane;" vertex="1" parent="1">
          <mxGeometry x="1174.5" y="30" width="201" height="90" as="geometry" />
        </mxCell>
        <mxCell id="HztQ0t9ekUGvmbXVed-x-72" value="&lt;div&gt;int CurrentViewDataIndex&lt;/div&gt;" style="text;strokeColor=none;fillColor=none;align=left;verticalAlign=top;spacingLeft=4;spacingRight=4;overflow=hidden;rotatable=0;points=[[0,0.5],[1,0.5]];portConstraint=eastwest;whiteSpace=wrap;html=1;" vertex="1" parent="HztQ0t9ekUGvmbXVed-x-71">
          <mxGeometry x="1" y="24" width="200" height="26" as="geometry" />
        </mxCell>
        <mxCell id="HztQ0t9ekUGvmbXVed-x-73" value="1" style="text;html=1;strokeColor=none;fillColor=none;align=center;verticalAlign=middle;whiteSpace=wrap;rounded=0;" vertex="1" parent="1">
          <mxGeometry x="1218.5" y="-70" width="30" height="30" as="geometry" />
        </mxCell>
        <mxCell id="HztQ0t9ekUGvmbXVed-x-74" value="n" style="text;html=1;strokeColor=none;fillColor=none;align=center;verticalAlign=middle;whiteSpace=wrap;rounded=0;" vertex="1" parent="1">
          <mxGeometry x="1419.5" y="-180" width="30" height="30" as="geometry" />
        </mxCell>
        <mxCell id="HztQ0t9ekUGvmbXVed-x-75" value="TopViewViewData" style="swimlane;" vertex="1" parent="1">
          <mxGeometry x="1160" y="-190" width="230" height="120" as="geometry" />
        </mxCell>
        <mxCell id="HztQ0t9ekUGvmbXVed-x-76" value="&lt;div&gt;&lt;font style=&quot;font-size: 10px;&quot;&gt;CameraPosition _currentEditingCameraPosition&lt;/font&gt;&lt;/div&gt;" style="text;strokeColor=none;fillColor=none;align=left;verticalAlign=top;spacingLeft=4;spacingRight=4;overflow=hidden;rotatable=0;points=[[0,0.5],[1,0.5]];portConstraint=eastwest;whiteSpace=wrap;html=1;" vertex="1" parent="HztQ0t9ekUGvmbXVed-x-75">
          <mxGeometry y="25" width="230" height="26" as="geometry" />
        </mxCell>
        <mxCell id="HztQ0t9ekUGvmbXVed-x-77" value="&lt;div&gt;&lt;font style=&quot;font-size: 10px;&quot;&gt;Dictionary&amp;lt;CameraPosition, CameraViewData&amp;gt; _usingCameraViewDataDictionary&lt;/font&gt;&lt;/div&gt;" style="text;strokeColor=none;fillColor=none;align=left;verticalAlign=top;spacingLeft=4;spacingRight=4;overflow=hidden;rotatable=0;points=[[0,0.5],[1,0.5]];portConstraint=eastwest;whiteSpace=wrap;html=1;" vertex="1" parent="HztQ0t9ekUGvmbXVed-x-75">
          <mxGeometry x="-1" y="51" width="230" height="39" as="geometry" />
        </mxCell>
        <mxCell id="HztQ0t9ekUGvmbXVed-x-78" value="&lt;div&gt;&lt;font style=&quot;font-size: 10px;&quot;&gt;ViewTuningData _viewTuningData&lt;/font&gt;&lt;/div&gt;" style="text;strokeColor=none;fillColor=none;align=left;verticalAlign=top;spacingLeft=4;spacingRight=4;overflow=hidden;rotatable=0;points=[[0,0.5],[1,0.5]];portConstraint=eastwest;whiteSpace=wrap;html=1;" vertex="1" parent="HztQ0t9ekUGvmbXVed-x-75">
          <mxGeometry x="-1" y="90" width="230" height="26" as="geometry" />
        </mxCell>
        <mxCell id="HztQ0t9ekUGvmbXVed-x-80" value="n" style="text;html=1;strokeColor=none;fillColor=none;align=center;verticalAlign=middle;whiteSpace=wrap;rounded=0;" vertex="1" parent="1">
          <mxGeometry x="1635" y="120" width="30" height="30" as="geometry" />
        </mxCell>
        <mxCell id="HztQ0t9ekUGvmbXVed-x-81" value="1" style="text;html=1;strokeColor=none;fillColor=none;align=center;verticalAlign=middle;whiteSpace=wrap;rounded=0;" vertex="1" parent="1">
          <mxGeometry x="1270" y="279" width="30" height="30" as="geometry" />
        </mxCell>
        <mxCell id="HztQ0t9ekUGvmbXVed-x-83" value="1" style="text;html=1;strokeColor=none;fillColor=none;align=center;verticalAlign=middle;whiteSpace=wrap;rounded=0;" vertex="1" parent="1">
          <mxGeometry x="1274" y="120" width="30" height="30" as="geometry" />
        </mxCell>
        <mxCell id="HztQ0t9ekUGvmbXVed-x-85" value="TopViewData" style="swimlane;" vertex="1" parent="1">
          <mxGeometry x="1566" y="180" width="200" height="90" as="geometry" />
        </mxCell>
        <mxCell id="HztQ0t9ekUGvmbXVed-x-86" value="&lt;font style=&quot;font-size: 10px;&quot;&gt;ViewTransform _viewTransform&lt;/font&gt;" style="text;strokeColor=none;fillColor=none;align=left;verticalAlign=top;spacingLeft=4;spacingRight=4;overflow=hidden;rotatable=0;points=[[0,0.5],[1,0.5]];portConstraint=eastwest;whiteSpace=wrap;html=1;" vertex="1" parent="HztQ0t9ekUGvmbXVed-x-85">
          <mxGeometry y="25" width="200" height="26" as="geometry" />
        </mxCell>
        <mxCell id="HztQ0t9ekUGvmbXVed-x-87" value="&lt;font style=&quot;font-size: 10px;&quot;&gt;ProtolessSimulationData _simulationData&lt;/font&gt;" style="text;strokeColor=none;fillColor=none;align=left;verticalAlign=top;spacingLeft=4;spacingRight=4;overflow=hidden;rotatable=0;points=[[0,0.5],[1,0.5]];portConstraint=eastwest;whiteSpace=wrap;html=1;" vertex="1" parent="HztQ0t9ekUGvmbXVed-x-85">
          <mxGeometry y="51" width="200" height="26" as="geometry" />
        </mxCell>
        <mxCell id="HztQ0t9ekUGvmbXVed-x-90" style="edgeStyle=orthogonalEdgeStyle;rounded=0;orthogonalLoop=1;jettySize=auto;html=1;entryX=0;entryY=0.5;entryDx=0;entryDy=0;exitX=1;exitY=0.5;exitDx=0;exitDy=0;" edge="1" parent="1" source="0piN9PvZCirRsEY30RKc-69" target="HztQ0t9ekUGvmbXVed-x-69">
          <mxGeometry relative="1" as="geometry">
            <mxPoint x="500" y="460" as="sourcePoint" />
            <mxPoint x="1311" y="649" as="targetPoint" />
          </mxGeometry>
        </mxCell>
        <mxCell id="HztQ0t9ekUGvmbXVed-x-91" style="edgeStyle=orthogonalEdgeStyle;rounded=0;orthogonalLoop=1;jettySize=auto;html=1;exitX=0.5;exitY=0;exitDx=0;exitDy=0;entryX=0.5;entryY=1;entryDx=0;entryDy=0;" edge="1" parent="1" source="HztQ0t9ekUGvmbXVed-x-71" target="HztQ0t9ekUGvmbXVed-x-75">
          <mxGeometry relative="1" as="geometry">
            <mxPoint x="1568.5" y="-330" as="sourcePoint" />
            <mxPoint x="1568.5" y="-161" as="targetPoint" />
          </mxGeometry>
        </mxCell>
        <mxCell id="HztQ0t9ekUGvmbXVed-x-93" style="edgeStyle=orthogonalEdgeStyle;rounded=0;orthogonalLoop=1;jettySize=auto;html=1;exitX=0.5;exitY=0;exitDx=0;exitDy=0;entryX=0.5;entryY=1;entryDx=0;entryDy=0;" edge="1" parent="1" source="HztQ0t9ekUGvmbXVed-x-67" target="HztQ0t9ekUGvmbXVed-x-71">
          <mxGeometry relative="1" as="geometry">
            <mxPoint x="1588.5" y="-310" as="sourcePoint" />
            <mxPoint x="1588.5" y="-141" as="targetPoint" />
          </mxGeometry>
        </mxCell>
        <mxCell id="HztQ0t9ekUGvmbXVed-x-94" value="1" style="text;html=1;strokeColor=none;fillColor=none;align=center;verticalAlign=middle;whiteSpace=wrap;rounded=0;" vertex="1" parent="1">
          <mxGeometry x="1244" width="30" height="30" as="geometry" />
        </mxCell>
        <mxCell id="HztQ0t9ekUGvmbXVed-x-95" value="1" style="text;html=1;strokeColor=none;fillColor=none;align=center;verticalAlign=middle;whiteSpace=wrap;rounded=0;" vertex="1" parent="1">
          <mxGeometry x="1233.5" y="-220" width="30" height="30" as="geometry" />
        </mxCell>
        <mxCell id="HztQ0t9ekUGvmbXVed-x-96" value="1" style="text;html=1;strokeColor=none;fillColor=none;align=center;verticalAlign=middle;whiteSpace=wrap;rounded=0;" vertex="1" parent="1">
          <mxGeometry x="1274" y="143" width="30" height="30" as="geometry" />
        </mxCell>
        <mxCell id="HztQ0t9ekUGvmbXVed-x-98" style="edgeStyle=orthogonalEdgeStyle;rounded=0;orthogonalLoop=1;jettySize=auto;html=1;exitX=1.011;exitY=0.308;exitDx=0;exitDy=0;entryX=0.25;entryY=0;entryDx=0;entryDy=0;exitPerimeter=0;" edge="1" parent="1" source="HztQ0t9ekUGvmbXVed-x-77" target="HztQ0t9ekUGvmbXVed-x-85">
          <mxGeometry relative="1" as="geometry">
            <mxPoint x="1327" y="40" as="sourcePoint" />
            <mxPoint x="1327" y="-60" as="targetPoint" />
          </mxGeometry>
        </mxCell>
        <mxCell id="HztQ0t9ekUGvmbXVed-x-99" value="" style="rounded=0;whiteSpace=wrap;html=1;opacity=40;strokeWidth=5;perimeterSpacing=11;gradientColor=none;" vertex="1" parent="1">
          <mxGeometry x="2210" y="1280" width="260" height="520" as="geometry" />
        </mxCell>
        <mxCell id="HztQ0t9ekUGvmbXVed-x-100" value="ObjectShape" style="swimlane;" vertex="1" parent="1">
          <mxGeometry x="1920" y="1128" width="200" height="90" as="geometry" />
        </mxCell>
        <mxCell id="HztQ0t9ekUGvmbXVed-x-101" value="VerticalPillar" style="swimlane;" vertex="1" parent="1">
          <mxGeometry x="2240" y="1545" width="200" height="90" as="geometry" />
        </mxCell>
        <mxCell id="HztQ0t9ekUGvmbXVed-x-102" value="GridSurface" style="swimlane;" vertex="1" parent="1">
          <mxGeometry x="2240" y="1419" width="200" height="90" as="geometry" />
        </mxCell>
        <mxCell id="HztQ0t9ekUGvmbXVed-x-103" value="CenterRedLine" style="swimlane;" vertex="1" parent="1">
          <mxGeometry x="2240" y="1298" width="200" height="90" as="geometry" />
        </mxCell>
        <mxCell id="HztQ0t9ekUGvmbXVed-x-104" value="VirtualHorizon" style="swimlane;" vertex="1" parent="1">
          <mxGeometry x="2240" y="1660" width="200" height="90" as="geometry" />
        </mxCell>
        <mxCell id="HztQ0t9ekUGvmbXVed-x-108" value="" style="endArrow=block;dashed=1;endFill=0;endSize=12;html=1;rounded=0;entryX=0.025;entryY=0.474;entryDx=0;entryDy=0;entryPerimeter=0;exitX=0.5;exitY=1;exitDx=0;exitDy=0;" edge="1" parent="1" source="HztQ0t9ekUGvmbXVed-x-100" target="HztQ0t9ekUGvmbXVed-x-99">
          <mxGeometry width="160" relative="1" as="geometry">
            <mxPoint x="2120" y="1530" as="sourcePoint" />
            <mxPoint x="2160" y="731" as="targetPoint" />
            <Array as="points">
              <mxPoint x="2020" y="1526" />
            </Array>
          </mxGeometry>
        </mxCell>
        <mxCell id="HztQ0t9ekUGvmbXVed-x-109" style="edgeStyle=orthogonalEdgeStyle;rounded=0;orthogonalLoop=1;jettySize=auto;html=1;exitX=0.5;exitY=1;exitDx=0;exitDy=0;" edge="1" parent="1" source="Lp6IFcDQnF-obYxSoJii-10" target="0piN9PvZCirRsEY30RKc-64">
          <mxGeometry relative="1" as="geometry">
            <mxPoint x="1761" y="880" as="sourcePoint" />
            <mxPoint x="1761" y="769" as="targetPoint" />
          </mxGeometry>
        </mxCell>
        <mxCell id="MyMng0KfPHgHiX2NX5iJ-7" value="" style="group" connectable="0" vertex="1" parent="1">
          <mxGeometry x="2720" y="719.5" width="490" height="411" as="geometry" />
        </mxCell>
        <mxCell id="MyMng0KfPHgHiX2NX5iJ-1" value="BMPImageHandler" style="swimlane;strokeColor=#FFB366;" vertex="1" parent="MyMng0KfPHgHiX2NX5iJ-7">
          <mxGeometry x="30" y="161" width="200" height="90" as="geometry" />
        </mxCell>
        <mxCell id="MyMng0KfPHgHiX2NX5iJ-2" value="" style="rounded=0;whiteSpace=wrap;html=1;opacity=40;strokeWidth=5;strokeColor=#000000;" vertex="1" parent="MyMng0KfPHgHiX2NX5iJ-7">
          <mxGeometry width="490" height="411" as="geometry" />
        </mxCell>
        <mxCell id="MyMng0KfPHgHiX2NX5iJ-3" value="CameraParamterConvertHandler" style="swimlane;strokeColor=#FFB366;" vertex="1" parent="MyMng0KfPHgHiX2NX5iJ-7">
          <mxGeometry x="30" y="56" width="200" height="90" as="geometry" />
        </mxCell>
        <mxCell id="MyMng0KfPHgHiX2NX5iJ-4" value="EventManager" style="swimlane;strokeColor=#FFB366;" vertex="1" parent="MyMng0KfPHgHiX2NX5iJ-7">
          <mxGeometry x="280" y="56" width="200" height="90" as="geometry" />
        </mxCell>
        <mxCell id="MyMng0KfPHgHiX2NX5iJ-5" value="LookUpTable" style="swimlane;strokeColor=#FFB366;" vertex="1" parent="MyMng0KfPHgHiX2NX5iJ-7">
          <mxGeometry x="280" y="161" width="200" height="90" as="geometry" />
        </mxCell>
        <mxCell id="MyMng0KfPHgHiX2NX5iJ-6" value="MatrixCalculate" style="swimlane;strokeColor=#FFB366;" vertex="1" parent="MyMng0KfPHgHiX2NX5iJ-7">
          <mxGeometry x="30" y="281" width="200" height="90" as="geometry" />
        </mxCell>
      </root>
    </mxGraphModel>
  </diagram>
</mxfile>
